SplineFontDB: 3.0
FontName: Untitled1
FullName: Untitled1
FamilyName: Untitled1
Weight: Regular
Copyright: Copyright (c) 2016, Wister
UComments: "2016-3-23: Created with FontForge (http://fontforge.org)"
Version: 001.000
ItalicAngle: 0
UnderlinePosition: -100
UnderlineWidth: 50
Ascent: 800
Descent: 200
InvalidEm: 0
LayerCount: 2
Layer: 0 0 "Back" 1
Layer: 1 0 "Fore" 0
XUID: [1021 240 743967008 26303]
OS2Version: 0
OS2_WeightWidthSlopeOnly: 0
OS2_UseTypoMetrics: 1
CreationTime: 1458692091
ModificationTime: 1458692422
OS2TypoAscent: 0
OS2TypoAOffset: 1
OS2TypoDescent: 0
OS2TypoDOffset: 1
OS2TypoLinegap: 0
OS2WinAscent: 0
OS2WinAOffset: 1
OS2WinDescent: 0
OS2WinDOffset: 1
HheadAscent: 0
HheadAOffset: 1
HheadDescent: 0
HheadDOffset: 1
OS2Vendor: 'PfEd'
DEI: 91125
Encoding: ISO8859-1
UnicodeInterp: none
NameList: AGL For New Fonts
DisplaySize: -48
AntiAlias: 1
FitToEm: 0
WinInfo: 0 16 9
BeginChars: 256 92

StartChar: exclam
Encoding: 33 33 0
Width: 266
Flags: W
HStem: 0 188<51 241> 720 20G<51 242> 720 20G<51 242>
VStem: 51 191<0 188 275 740>
LayerCount: 2
Fore
SplineSet
241 0 m 1x90
 51 0 l 1
 51 188 l 1
 241 188 l 1
 241 0 l 1x90
242 740 m 1xd0
 242 275 l 1
 51 275 l 1
 51 740 l 1
 242 740 l 1xd0
EndSplineSet
Validated: 1
EndChar

StartChar: quotedbl
Encoding: 34 34 1
Width: 505
Flags: W
HStem: 372 150<34 86.1426 269 319.062> 588 151<34 87 262 320>
VStem: 34 204<470.703 522 588 739> 262 211<588 739>
LayerCount: 2
Fore
SplineSet
34 739 m 1
 238 739 l 1
 238 524 l 1
 224 473 200 436 166 414 c 0
 132 391 88 377 34 372 c 1
 34 522 l 1
 87 522 l 1
 87 588 l 1
 34 588 l 1
 34 739 l 1
269 522 m 1
 320 522 l 1
 320 588 l 1
 262 588 l 1
 262 739 l 1
 473 739 l 1
 473 531 l 2
 473 509 467 488 456 469 c 0
 444 450 429 433 411 418 c 0
 393 404 373 393 350 384 c 0
 328 375 306 371 284 371 c 0
 274 371 269 373 269 377 c 2
 269 522 l 1
EndSplineSet
Validated: 1
EndChar

StartChar: numbersign
Encoding: 35 35 2
Width: 1207
Flags: W
HStem: 0 21G<99 307.523 810 1018.52> 0 21G<99 307.523 810 1018.52> 111 205<50 113 345 824 1056 1111> 400 205<88 150 382 861 1093 1149> 720 20G<191.333 400 902.333 1111> 720 20G<191.333 400 902.333 1111>
LayerCount: 2
Fore
SplineSet
382 605 m 1xb8
 887 605 l 1
 905 740 l 1
 1111 740 l 1
 1093 605 l 1
 1176 605 l 1
 1149 400 l 1
 1067 400 l 1
 1056 316 l 1
 1138 316 l 1
 1111 111 l 1
 1030 111 l 1
 1016 0 l 1
 810 0 l 1
 824 111 l 1
 319 111 l 1
 305 0 l 1
 99 0 l 1
 113 111 l 1
 23 111 l 1
 50 316 l 1
 139 316 l 1
 150 400 l 1
 61 400 l 1
 88 605 l 1
 176 605 l 1
 194 740 l 1
 400 740 l 1
 382 605 l 1xb8
345 316 m 1
 850 316 l 1
 861 400 l 1
 356 400 l 1
 345 316 l 1
EndSplineSet
Validated: 1
EndChar

StartChar: dollar
Encoding: 36 36 3
Width: 1203
Flags: W
HStem: -62 255<504 700> 0 193<78 504 700 972.936> 278 187<250.283 981.047> 552 257<504 700> 552 185<234.798 504 700 1130>
VStem: 504 196<-62 0 737 809> 982 192<200.949 277.244>
LayerCount: 2
Fore
SplineSet
700 737 m 1x2e
 1130 737 l 1
 1130 552 l 1
 233 552 l 1
 233 541 233 530 234 520 c 0
 234 509 235 500 238 492 c 0
 241 484 245 478 250 472 c 0
 256 468 264 465 275 465 c 2
 940 465 l 2
 998 465 1043 459 1074 446 c 0
 1106 434 1129 418 1144 397 c 0
 1159 376 1167 352 1170 326 c 0
 1173 298 1174 270 1174 241 c 0
 1174 222 1174 203 1173 184 c 0
 1172 165 1170 146 1166 128 c 0
 1161 111 1154 94 1144 78 c 0
 1135 63 1121 49 1104 38 c 0
 1087 26 1065 17 1038 10 c 0
 1011 3 979 0 940 0 c 2
 700 0 l 1x6e
 700 -62 l 1
 504 -62 l 1xa6
 504 0 l 1
 78 0 l 1
 78 193 l 1
 929 193 l 2
 942 193 952 195 959 200 c 0
 966 205 972 211 975 218 c 0
 978 226 980 235 981 246 c 0
 982 256 982 267 982 278 c 1
 247 278 l 2
 194 278 153 285 124 298 c 0
 95 311 74 329 61 351 c 0
 48 373 40 398 38 426 c 0
 35 453 34 481 34 510 c 0
 34 537 35 564 38 592 c 0
 40 618 48 643 61 664 c 0
 74 686 95 704 124 717 c 0
 153 730 194 737 247 737 c 2
 504 737 l 1x6e
 504 809 l 1
 700 809 l 1x36
 700 737 l 1x2e
EndSplineSet
Validated: 1
EndChar

StartChar: percent
Encoding: 37 37 4
Width: 1194
Flags: W
HStem: 6 196<919.5 952.5> 271 196<248.5 281.5> 282 182<919.5 952.5 919.5 978 895 952.5> 547 182<248.5 281.5 248.5 307 224 281.5>
VStem: 25 199<484.5 515.5> 307 198<484.5 515.5 484.5 547 484.5 547> 696 199<219.5 250.5> 978 198<219.5 250.5 219.5 282 219.5 282>
LayerCount: 2
Fore
SplineSet
25 500 m 0xdf
 25 531 31 561 44 589 c 0
 57 617 74 641 96 662 c 0
 117 683 142 699 172 711 c 0
 200 723 232 729 265 729 c 0
 298 729 329 723 358 711 c 0
 387 699 413 683 434 662 c 0
 456 641 473 617 486 589 c 0
 499 561 505 531 505 500 c 0
 505 469 499 439 486 411 c 0
 473 383 456 359 434 338 c 0
 413 317 387 301 358 289 c 0
 329 277 298 271 265 271 c 0
 232 271 200 277 172 289 c 0
 142 301 117 317 96 338 c 0
 74 359 57 383 44 411 c 0
 31 439 25 469 25 500 c 0xdf
762 744 m 1
 831 744 l 1
 454 0 l 1
 385 0 l 1
 762 744 l 1
307 547 m 1
 224 547 l 1
 224 467 l 1
 307 467 l 1
 307 547 l 1
696 235 m 0
 696 266 702 296 715 324 c 0
 728 352 745 376 766 397 c 0
 788 418 814 434 842 446 c 0
 872 458 903 464 936 464 c 0xbf
 969 464 1000 458 1029 446 c 0
 1058 434 1084 418 1106 397 c 0
 1127 376 1144 352 1157 324 c 0
 1170 296 1176 266 1176 235 c 0
 1176 204 1170 174 1157 146 c 0
 1144 118 1127 94 1106 73 c 0
 1084 52 1058 36 1029 24 c 0
 1000 12 969 6 936 6 c 0
 903 6 872 12 842 24 c 0
 814 36 788 52 766 73 c 0
 745 94 728 118 715 146 c 0
 702 174 696 204 696 235 c 0
978 282 m 1
 895 282 l 1
 895 202 l 1
 978 202 l 1
 978 282 l 1
EndSplineSet
Validated: 1
EndChar

StartChar: ampersand
Encoding: 38 38 5
Width: 1180
Flags: W
HStem: 0 192<252.33 860> 549 191<254 1082>
VStem: 32 199<198.234 336.271>
LayerCount: 2
Fore
SplineSet
1082 740 m 1
 1082 549 l 1
 254 549 l 1
 894 399 l 1
 894 470 l 1
 1082 470 l 1
 1082 356 l 1
 1153 337 l 1
 1153 138 l 1
 1082 153 l 1
 1082 137 1077 120 1068 102 c 0
 1059 84 1046 68 1030 52 c 0
 1014 38 995 25 972 15 c 0
 950 5 926 0 900 0 c 2
 278 0 l 2
 217 0 169 8 136 22 c 0
 103 38 78 58 63 83 c 0
 48 108 39 137 36 170 c 0
 33 203 32 237 32 272 c 0
 32 300 34 327 37 354 c 0
 40 381 52 407 71 434 c 1
 64 443 58 452 54 460 c 0
 50 469 47 477 45 486 c 0
 43 494 42 502 42 510 c 0
 41 519 41 527 41 536 c 0
 41 562 42 587 44 612 c 0
 46 636 53 658 65 676 c 0
 77 696 96 711 122 722 c 0
 149 734 186 740 234 740 c 2
 1082 740 l 1
860 192 m 1
 231 337 l 1
 231 268 l 2
 231 258 231 248 232 240 c 0
 233 230 234 222 238 216 c 0
 240 208 245 203 252 198 c 0
 259 194 268 192 280 192 c 2
 860 192 l 1
EndSplineSet
Validated: 1
EndChar

StartChar: quotesingle
Encoding: 39 39 6
Width: 240
Flags: W
HStem: 720 20G<33 217> 720 20G<33 217>
VStem: 33 184<464.375 524 588 740> 83 134<524.683 588>
LayerCount: 2
Fore
SplineSet
33 588 m 1xa0
 33 740 l 1
 217 740 l 1xa0
 217 530 l 2x90
 217 511 212 493 203 476 c 0
 194 460 181 446 164 434 c 0
 148 423 129 414 106 407 c 0
 84 400 60 397 33 397 c 1
 33 524 l 1xa0
 83 524 l 1
 83 588 l 1x90
 33 588 l 1xa0
EndSplineSet
Validated: 1
EndChar

StartChar: parenleft
Encoding: 40 40 7
Width: 278
Flags: W
VStem: 41 146<66.6672 673.967>
LayerCount: 2
Fore
SplineSet
187 674 m 1
 187 66 l 1
 242 66 l 1
 242 -93 l 1
 213 -93 187 -87 162 -74 c 0
 138 -61 117 -45 99 -26 c 0
 81 -7 67 15 56 39 c 0
 46 63 41 86 41 108 c 2
 41 646 l 2
 41 671 46 696 56 718 c 0
 67 742 81 762 99 778 c 0
 117 796 138 809 162 819 c 0
 187 829 213 834 242 834 c 1
 242 674 l 1
 187 674 l 1
EndSplineSet
Validated: 1
EndChar

StartChar: parenright
Encoding: 41 41 8
Width: 278
Flags: W
VStem: 95 146<66.6672 673.967>
LayerCount: 2
Fore
SplineSet
40 674 m 1
 40 834 l 1
 69 834 95 829 120 819 c 0
 144 809 165 796 183 778 c 0
 201 762 215 742 226 718 c 0
 236 696 241 671 241 646 c 2
 241 108 l 2
 241 86 236 63 226 39 c 0
 215 15 201 -7 183 -26 c 0
 165 -45 144 -61 120 -74 c 0
 95 -87 69 -93 40 -93 c 1
 40 66 l 1
 95 66 l 1
 95 674 l 1
 40 674 l 1
EndSplineSet
Validated: 1
EndChar

StartChar: asterisk
Encoding: 42 42 9
Width: 520
Flags: W
HStem: 271 180<35 144 389 492>
LayerCount: 2
Fore
SplineSet
265 519 m 1
 317 608 l 1
 436 541 l 1
 387 451 l 1
 492 451 l 1
 492 271 l 1
 389 271 l 1
 440 177 l 1
 326 112 l 1
 267 197 l 1
 212 112 l 1
 94 177 l 1
 144 271 l 1
 35 271 l 1
 35 451 l 1
 153 451 l 1
 92 543 l 1
 210 608 l 1
 265 519 l 1
EndSplineSet
Validated: 1
EndChar

StartChar: plus
Encoding: 43 43 10
Width: 654
Flags: W
HStem: 271 205<47 225 430 604>
VStem: 225 205<92 271 476 649>
LayerCount: 2
Fore
SplineSet
47 476 m 1
 225 476 l 1
 225 649 l 1
 430 649 l 1
 430 476 l 1
 604 476 l 1
 604 271 l 1
 430 271 l 1
 430 92 l 1
 225 92 l 1
 225 271 l 1
 47 271 l 1
 47 476 l 1
EndSplineSet
Validated: 1
EndChar

StartChar: comma
Encoding: 44 44 11
Width: 284
Flags: W
VStem: 33 215<0 205>
LayerCount: 2
Fore
SplineSet
33 205 m 1
 248 205 l 1
 248 0 l 1
 245 0 l 1
 244 -33 236 -62 220 -87 c 0
 204 -112 185 -134 162 -150 c 0
 140 -168 117 -180 93 -189 c 0
 69 -198 49 -202 33 -202 c 1
 33 -64 l 1
 85 -64 l 1
 85 0 l 1
 33 0 l 1
 33 205 l 1
EndSplineSet
Validated: 1
EndChar

StartChar: hyphen
Encoding: 45 45 12
Width: 654
Flags: W
HStem: 271 205<47 604>
LayerCount: 2
Fore
SplineSet
47 271 m 1
 47 476 l 1
 604 476 l 1
 604 271 l 1
 47 271 l 1
EndSplineSet
Validated: 1
EndChar

StartChar: period
Encoding: 46 46 13
Width: 274
Flags: W
HStem: 0 205<26 241>
VStem: 26 215<0 205>
LayerCount: 2
Fore
SplineSet
26 0 m 1
 26 205 l 1
 241 205 l 1
 241 0 l 1
 26 0 l 1
EndSplineSet
Validated: 1
EndChar

StartChar: slash
Encoding: 47 47 14
Width: 1051
Flags: W
HStem: 0 21G<35 314.973> 0 21G<35 314.973> 720 20G<755 1034> 720 20G<755 1034>
LayerCount: 2
Fore
SplineSet
1034 740 m 1xa0
 295 0 l 1
 35 0 l 1
 775 740 l 1
 1034 740 l 1xa0
EndSplineSet
Validated: 1
EndChar

StartChar: zero
Encoding: 48 48 15
Width: 1104
Flags: W
HStem: 0 194<232.194 862.717> 550 190<227.181 876.776>
VStem: 33 191<212.519 546.4> 882 193<198.187 545.81>
LayerCount: 2
Fore
SplineSet
1075 224 m 2
 1075 188 1069 156 1058 128 c 0
 1047 101 1031 78 1010 58 c 0
 990 40 966 25 936 15 c 0
 908 5 875 0 840 0 c 2
 269 0 l 2
 234 0 203 5 174 16 c 0
 145 26 120 41 100 60 c 0
 78 79 62 103 50 130 c 0
 39 158 33 189 33 224 c 2
 33 527 l 2
 36 557 43 585 56 611 c 0
 68 637 84 660 105 678 c 0
 126 698 150 712 178 724 c 0
 205 734 236 740 270 740 c 2
 840 740 l 2
 879 740 913 734 942 722 c 0
 971 711 996 695 1016 674 c 0
 1035 653 1050 629 1060 600 c 0
 1070 571 1075 540 1075 505 c 2
 1075 224 l 2
882 488 m 2
 882 496 882 504 881 511 c 0
 880 518 879 525 876 530 c 0
 873 536 869 541 864 544 c 0
 858 548 850 550 840 550 c 2
 269 550 l 2
 258 550 249 549 243 546 c 0
 237 543 232 540 230 535 c 0
 226 530 225 525 224 520 c 2
 224 502 l 1
 224 256 l 2
 224 238 226 223 232 212 c 0
 236 200 249 194 268 194 c 2
 838 194 l 2
 849 194 857 196 863 198 c 0
 869 202 874 205 876 210 c 0
 880 215 881 220 882 226 c 2
 882 246 l 1
 882 488 l 2
EndSplineSet
Validated: 1
EndChar

StartChar: one
Encoding: 49 49 16
Width: 536
Flags: W
HStem: 0 21G<312 500> 0 21G<312 500> 719 20G<299 337.5> 719 20G<299 337.5>
VStem: 312 188<0 557.071>
LayerCount: 2
Fore
SplineSet
500 547 m 2xa8
 500 0 l 1
 312 0 l 1
 312 558 l 1
 39 284 l 1
 39 558 l 1
 166 677 l 2
 187 697 210 712 234 723 c 0
 257 734 284 739 314 739 c 0
 361 739 396 734 422 722 c 0
 446 712 465 697 476 679 c 0
 488 661 495 640 497 618 c 0
 499 594 500 571 500 547 c 2xa8
EndSplineSet
Validated: 1
EndChar

StartChar: two
Encoding: 50 50 17
Width: 891
Flags: W
HStem: 0 190<232 858> 282 182<241.799 691> 558 182<41 681.335>
VStem: 691 167<464 548.328>
LayerCount: 2
Fore
SplineSet
858 190 m 1
 858 0 l 1
 47 0 l 1
 47 262 l 2
 47 288 48 313 50 338 c 0
 52 362 59 383 70 402 c 0
 81 421 100 436 124 447 c 0
 150 458 185 464 231 464 c 2
 691 464 l 1
 691 482 690 497 690 509 c 0
 688 521 686 531 680 538 c 0
 676 545 668 550 656 554 c 0
 646 556 630 558 609 558 c 2
 41 558 l 1
 41 740 l 1
 699 740 l 2
 739 740 770 735 791 724 c 0
 812 714 828 701 838 685 c 0
 848 669 854 651 856 631 c 0
 857 611 858 591 858 572 c 2
 858 282 l 1
 292 282 l 2
 279 282 269 281 262 278 c 0
 254 275 248 270 244 264 c 0
 239 256 236 247 234 236 c 0
 233 224 232 209 232 190 c 1
 858 190 l 1
EndSplineSet
Validated: 1
EndChar

StartChar: three
Encoding: 51 51 18
Width: 1115
Flags: W
HStem: 0 193<49 883.806> 273 191<49 892> 550 190<49 885.714>
VStem: 893 192<211.565 273 464 530.39>
LayerCount: 2
Fore
SplineSet
848 740 m 2
 882 740 913 734 942 722 c 0
 971 709 996 692 1017 671 c 0
 1038 650 1055 624 1067 596 c 0
 1079 566 1085 536 1085 503 c 2
 1085 235 l 2
 1085 200 1079 168 1068 138 c 0
 1057 110 1040 85 1020 64 c 0
 998 43 974 28 944 16 c 0
 916 6 883 0 848 0 c 2
 49 0 l 1
 49 193 l 1
 848 193 l 2
 867 193 880 199 884 211 c 0
 890 223 892 238 892 256 c 2
 892 273 l 1
 49 273 l 1
 49 464 l 1
 893 464 l 1
 893 488 l 2
 893 504 890 518 886 531 c 0
 880 544 868 550 848 550 c 2
 49 550 l 1
 49 740 l 1
 848 740 l 2
EndSplineSet
Validated: 1
EndChar

StartChar: four
Encoding: 52 52 19
Width: 1238
Flags: W
HStem: 0 21G<933 1126> 0 21G<933 1126> 202 190<260.312 933 1126 1203> 720 20G<43 246 933 1126> 720 20G<43 246 933 1126>
VStem: 43 203<404.639 740> 933 193<0 202 392 740>
LayerCount: 2
Fore
SplineSet
933 392 m 1xb6
 933 740 l 1
 1126 740 l 1
 1126 392 l 1
 1203 392 l 1
 1203 202 l 1
 1126 202 l 1
 1126 0 l 1
 933 0 l 1
 933 202 l 1
 307 202 l 2
 241 202 190 209 154 222 c 0
 119 236 93 255 76 278 c 0
 59 301 50 329 47 360 c 0
 44 392 43 426 43 461 c 2
 43 740 l 1
 246 740 l 1
 246 481 l 2
 246 470 246 459 248 448 c 0
 248 437 251 428 256 420 c 0
 260 411 266 404 275 400 c 0
 284 394 296 392 311 392 c 2
 933 392 l 1xb6
EndSplineSet
Validated: 1
EndChar

StartChar: five
Encoding: 53 53 20
Width: 1142
Flags: W
HStem: 0 193<47 892.669> 276 194<250.95 915.964> 552 188<240 1063>
LayerCount: 2
Fore
SplineSet
1063 740 m 1
 1063 552 l 1
 240 552 l 1
 240 540 241 529 242 519 c 0
 243 509 246 500 250 493 c 0
 255 486 261 480 270 476 c 0
 278 472 289 470 303 470 c 2
 873 470 l 2
 924 470 966 465 996 455 c 0
 1028 445 1051 430 1068 412 c 0
 1085 392 1096 369 1101 341 c 0
 1106 313 1109 281 1109 244 c 2
 1109 242 l 2
 1109 199 1106 163 1102 132 c 0
 1096 102 1086 77 1070 58 c 0
 1053 38 1029 23 998 14 c 0
 967 5 925 0 872 0 c 2
 47 0 l 1
 47 193 l 1
 861 193 l 2
 875 193 886 196 893 200 c 0
 900 206 906 212 909 220 c 0
 912 228 914 237 916 246 c 0
 916 256 917 266 917 276 c 1
 47 276 l 1
 47 740 l 1
 1063 740 l 1
EndSplineSet
Validated: 1
EndChar

StartChar: six
Encoding: 54 54 21
Width: 1134
Flags: W
HStem: 0 195<247.277 903.701> 273 191<235 912.366> 547 193<249.797 912>
VStem: 41 194<205.827 273 464 534.135>
LayerCount: 2
Fore
SplineSet
912 740 m 1
 912 547 l 1
 303 547 l 2
 288 547 276 545 266 540 c 0
 258 536 251 530 246 522 c 0
 241 515 238 506 237 496 c 0
 236 486 235 475 235 464 c 1
 881 464 l 2
 931 464 971 458 1000 446 c 0
 1030 433 1053 416 1068 396 c 0
 1083 374 1093 350 1098 322 c 0
 1103 295 1105 266 1105 235 c 0
 1105 203 1103 173 1098 144 c 0
 1093 115 1083 90 1068 69 c 0
 1053 48 1030 31 1000 18 c 0
 971 6 931 0 881 0 c 2
 268 0 l 2
 211 0 168 8 137 25 c 0
 106 42 84 63 70 90 c 0
 55 116 47 145 44 178 c 0
 42 210 41 241 41 272 c 2
 41 465 l 2
 41 498 42 530 44 564 c 0
 47 596 55 626 70 652 c 0
 84 678 106 699 137 716 c 0
 168 732 211 740 268 740 c 2
 912 740 l 1
235 273 m 1
 235 263 235 253 236 244 c 0
 237 235 239 226 244 219 c 0
 248 212 255 206 264 202 c 0
 273 197 286 195 303 195 c 2
 855 195 l 2
 870 195 881 197 888 202 c 0
 896 206 902 212 906 218 c 0
 909 226 911 234 912 243 c 0
 913 252 913 262 913 273 c 1
 235 273 l 1
EndSplineSet
Validated: 1
EndChar

StartChar: seven
Encoding: 55 55 22
Width: 1112
Flags: W
HStem: 0 21G<65 427.177> 0 21G<65 427.177> 549 191<46 896.01>
LayerCount: 2
Fore
SplineSet
46 740 m 1xa0
 880 740 l 2
 930 740 969 734 996 723 c 0
 1023 712 1043 697 1056 678 c 0
 1069 659 1076 638 1078 614 c 0
 1080 590 1081 566 1081 541 c 0
 1081 513 1074 487 1062 463 c 0
 1048 439 1026 416 993 395 c 2
 397 0 l 1
 65 0 l 1
 897 549 l 1
 46 549 l 1
 46 740 l 1xa0
EndSplineSet
Validated: 1
EndChar

StartChar: eight
Encoding: 56 56 23
Width: 1134
Flags: W
HStem: 0 196<247.383 893.583> 273 197<247.406 885.525> 558 182<235.161 899.472>
VStem: 39 196<216.66 271.972 482.625 556.807> 901 195<204.084 271.75 491.662 557.647>
LayerCount: 2
Fore
SplineSet
285 0 m 2
 227 0 182 6 148 16 c 0
 116 28 91 42 75 62 c 0
 59 80 49 102 45 127 c 0
 41 152 39 178 39 206 c 0
 39 241 43 270 51 296 c 0
 59 320 71 344 86 365 c 1
 71 389 60 415 51 442 c 0
 42 470 38 496 38 521 c 0
 38 554 40 584 42 610 c 0
 46 638 55 660 70 680 c 0
 86 698 111 713 144 724 c 0
 177 735 225 740 286 740 c 2
 854 740 l 2
 915 740 961 735 994 724 c 0
 1027 713 1050 698 1066 680 c 0
 1080 660 1089 638 1092 612 c 0
 1095 585 1096 556 1096 525 c 0
 1096 502 1092 476 1083 449 c 0
 1074 422 1063 396 1050 373 c 1
 1082 331 1098 285 1098 235 c 0
 1098 202 1097 172 1094 144 c 0
 1091 115 1082 90 1067 69 c 0
 1052 48 1027 31 994 18 c 0
 961 6 914 0 853 0 c 2
 285 0 l 2
235 558 m 1
 235 547 235 536 236 526 c 0
 237 515 239 506 244 498 c 0
 248 489 254 482 264 478 c 0
 272 472 286 470 303 470 c 2
 833 470 l 2
 858 470 876 477 886 491 c 0
 896 505 901 527 901 558 c 1
 235 558 l 1
903 273 m 1
 235 273 l 1
 235 249 239 230 247 216 c 0
 255 203 274 196 303 196 c 2
 833 196 l 2
 850 196 864 198 874 202 c 0
 883 205 890 210 894 218 c 0
 899 224 901 233 902 242 c 0
 903 251 903 262 903 273 c 1
EndSplineSet
Validated: 1
EndChar

StartChar: nine
Encoding: 57 57 24
Width: 1143
Flags: W
HStem: 0 194<248 904.922> 279 186<248.056 917> 551 189<258.561 902.238>
VStem: 36 212<465.836 542.281> 917 193<207.111 279 465 536.981>
LayerCount: 2
Fore
SplineSet
248 0 m 1
 248 194 l 1
 847 194 l 2
 864 194 878 196 888 202 c 0
 897 206 904 213 908 221 c 0
 913 229 915 238 916 248 c 0
 917 259 917 269 917 279 c 1
 279 279 l 2
 226 279 184 285 152 296 c 0
 121 307 96 323 79 344 c 0
 62 364 50 388 44 416 c 0
 39 443 36 473 36 506 c 0
 36 539 38 570 42 599 c 0
 47 628 57 652 74 674 c 0
 90 694 114 711 146 722 c 0
 179 734 223 740 279 740 c 2
 845 740 l 2
 902 740 948 734 984 722 c 0
 1018 710 1045 693 1064 672 c 0
 1083 650 1095 624 1101 594 c 0
 1107 565 1110 532 1110 497 c 2
 1110 238 l 2
 1110 206 1107 176 1100 147 c 0
 1093 118 1081 93 1063 72 c 0
 1045 50 1020 32 990 20 c 0
 958 6 919 0 870 0 c 2
 248 0 l 1
302 551 m 2
 278 551 263 543 257 526 c 0
 251 510 248 490 248 465 c 1
 917 465 l 1
 917 475 917 485 916 496 c 0
 915 506 913 515 908 523 c 0
 904 531 897 538 888 542 c 0
 878 548 864 550 847 550 c 2
 302 551 l 2
EndSplineSet
Validated: 1
EndChar

StartChar: colon
Encoding: 58 58 25
Width: 295
Flags: W
HStem: 110 205<41 256> 399 205<41 256>
VStem: 41 215<110 315 399 604>
LayerCount: 2
Fore
SplineSet
41 399 m 1
 41 604 l 1
 256 604 l 1
 256 399 l 1
 41 399 l 1
41 110 m 1
 41 315 l 1
 256 315 l 1
 256 110 l 1
 41 110 l 1
EndSplineSet
Validated: 1
EndChar

StartChar: semicolon
Encoding: 59 59 26
Width: 292
Flags: W
HStem: 398 205<36 251>
VStem: 36 215<0 314 398 603>
LayerCount: 2
Fore
SplineSet
36 314 m 1
 251 314 l 1
 251 0 l 1
 248 0 l 1
 247 -33 239 -62 223 -87 c 0
 207 -112 188 -134 166 -150 c 0
 143 -168 120 -180 96 -189 c 0
 72 -198 52 -202 36 -202 c 1
 36 -64 l 1
 88 -64 l 1
 88 0 l 1
 36 0 l 1
 36 314 l 1
36 603 m 1
 251 603 l 1
 251 398 l 1
 36 398 l 1
 36 603 l 1
EndSplineSet
Validated: 1
EndChar

StartChar: less
Encoding: 60 60 27
Width: 880
Flags: W
HStem: 720 20G<739.693 810> 720 20G<739.693 810>
LayerCount: 2
Fore
SplineSet
810 525 m 1x80
 256 367 l 1
 810 209 l 1
 810 -3 l 1
 237 158 l 1
 213 171 190 184 170 197 c 0
 148 210 130 225 114 241 c 0
 99 257 86 275 78 296 c 0
 68 316 64 340 64 367 c 0
 64 393 69 416 78 437 c 0
 87 458 100 476 116 493 c 0
 131 510 150 525 170 538 c 0
 192 552 214 565 237 577 c 1
 810 740 l 1
 810 525 l 1x80
EndSplineSet
Validated: 1
EndChar

StartChar: equal
Encoding: 61 61 28
Width: 771
Flags: W
HStem: 111 205<47 721> 400 205<47 721>
LayerCount: 2
Fore
SplineSet
47 400 m 1
 47 605 l 1
 721 605 l 1
 721 400 l 1
 47 400 l 1
47 111 m 1
 47 316 l 1
 721 316 l 1
 721 111 l 1
 47 111 l 1
EndSplineSet
Validated: 1
EndChar

StartChar: greater
Encoding: 62 62 29
Width: 880
Flags: W
HStem: 720 20G<64 134.307> 720 20G<64 134.307>
LayerCount: 2
Fore
SplineSet
64 740 m 1x80
 637 577 l 1
 660 565 682 552 704 538 c 0
 724 525 743 510 758 493 c 0
 774 476 787 458 796 437 c 0
 805 416 810 393 810 367 c 0
 810 340 806 316 796 296 c 0
 788 275 775 257 760 241 c 0
 744 225 726 210 704 197 c 0
 684 184 661 171 637 158 c 1
 64 -3 l 1
 64 209 l 1
 618 367 l 1
 64 525 l 1
 64 740 l 1x80
EndSplineSet
Validated: 1
EndChar

StartChar: question
Encoding: 63 63 30
Width: 1156
Flags: W
HStem: 0 191<493 685> 279 185<493 934.482> 550 190<40 933.364>
VStem: 493 192<0 191> 935 193<464.685 549.447>
LayerCount: 2
Fore
SplineSet
868 740 m 2
 908 740 944 734 976 724 c 0
 1008 712 1035 697 1058 678 c 0
 1081 658 1098 634 1110 606 c 0
 1122 579 1128 548 1128 514 c 0
 1128 481 1122 450 1110 422 c 0
 1099 393 1082 368 1060 347 c 0
 1037 326 1010 309 978 297 c 0
 945 285 909 279 868 279 c 2
 493 279 l 1
 493 464 l 1
 935 464 l 1
 935 550 l 1
 40 550 l 1
 40 740 l 1
 868 740 l 2
493 0 m 1
 493 191 l 1
 685 191 l 1
 685 0 l 1
 493 0 l 1
EndSplineSet
Validated: 1
EndChar

StartChar: at
Encoding: 64 64 31
Width: 569
Flags: W
HStem: -150 149<319 536 319 536> 714 149<319 536 319 319>
VStem: 139 180<-1 714 -1 863 -1 863> 139 397<-150 -1 714 863>
LayerCount: 2
Fore
SplineSet
139 -150 m 1xd0
 139 863 l 1
 536 863 l 1
 536 714 l 1xd0
 319 714 l 1
 319 -1 l 1xe0
 536 -1 l 1
 536 -150 l 1
 139 -150 l 1xd0
EndSplineSet
Validated: 1
EndChar

StartChar: A
Encoding: 65 65 32
Width: 1059
Flags: W
HStem: 0 21G<29 216 746.105 1059> 0 21G<29 216 746.105 1059> 190 159<216 418> 730 20G<204 243> 730 20G<204 243>
VStem: 29 187<0 190 349 552>
LayerCount: 2
Fore
SplineSet
29 577 m 2xb4
 29 609 34 636 44 658 c 0
 55 681 69 699 86 712 c 0
 104 725 124 735 146 741 c 0
 169 747 192 750 216 750 c 0
 270 750 321 727 368 680 c 2
 1059 0 l 1
 766 0 l 1
 577 190 l 1
 216 190 l 1
 216 0 l 1
 29 0 l 1
 29 575 l 1
 29 577 l 2xb4
216 349 m 1
 418 349 l 1
 216 552 l 1
 216 349 l 1
EndSplineSet
Validated: 1
EndChar

StartChar: B
Encoding: 66 66 33
Width: 1157
Flags: W
HStem: 0 191<247 898.301> 276 191<247 907> 550 191<247 888.717>
VStem: 51 196<191 276 467 550>
LayerCount: 2
Fore
SplineSet
52 741 m 1
 871 741 l 2
 929 741 974 735 1006 724 c 0
 1037 713 1060 697 1075 676 c 0
 1090 655 1098 631 1100 603 c 0
 1103 575 1104 544 1104 511 c 2
 1104 475 l 2
 1103 463 1102 451 1099 440 c 0
 1096 428 1092 416 1086 406 c 0
 1081 394 1073 384 1062 373 c 1
 1069 363 1076 353 1082 343 c 0
 1090 333 1096 322 1101 311 c 0
 1106 300 1111 287 1114 274 c 0
 1118 261 1120 246 1120 229 c 0
 1120 196 1118 165 1114 137 c 0
 1110 109 1100 85 1083 64 c 0
 1066 44 1042 28 1008 17 c 0
 976 6 930 0 872 0 c 2
 51 0 l 1
 52 741 l 1
907 467 m 1
 907 478 907 489 906 499 c 0
 906 509 905 518 902 526 c 0
 899 533 895 539 889 544 c 0
 883 548 875 550 864 550 c 2
 247 550 l 1
 247 467 l 1
 907 467 l 1
864 190 m 2
 875 190 883 192 888 197 c 0
 894 202 898 208 901 216 c 0
 904 224 905 233 906 244 c 0
 907 254 907 265 907 276 c 1
 247 276 l 1
 247 191 l 1
 864 190 l 2
EndSplineSet
Validated: 1
EndChar

StartChar: C
Encoding: 67 67 34
Width: 1147
Flags: W
HStem: 1 194<246.194 1098> 551 189<241.181 1096>
VStem: 47 191<212.565 547.4>
LayerCount: 2
Fore
SplineSet
1098 195 m 1
 1098 1 l 1
 283 1 l 2
 248 1 217 6 188 16 c 0
 159 27 134 42 114 61 c 0
 92 80 76 104 64 132 c 0
 53 159 47 190 47 225 c 2
 47 528 l 2
 50 558 57 586 70 612 c 0
 82 637 98 660 119 678 c 0
 140 698 164 712 192 724 c 0
 219 734 250 740 284 740 c 2
 1096 740 l 1
 1096 551 l 1
 283 551 l 2
 272 551 263 550 257 547 c 0
 251 544 246 541 244 536 c 0
 240 531 239 526 238 520 c 2
 238 503 l 1
 238 257 l 2
 238 239 240 224 246 212 c 0
 250 201 263 195 282 195 c 2
 1098 195 l 1
EndSplineSet
Validated: 1
EndChar

StartChar: D
Encoding: 68 68 35
Width: 1131
Flags: W
HStem: 0 190<240 897.812> 546 194<240 895.714>
VStem: 50 190<190 546> 903 191<205.234 527.481>
LayerCount: 2
Fore
SplineSet
50 740 m 1
 857 740 l 2
 892 740 924 735 952 724 c 0
 982 714 1006 699 1028 680 c 0
 1048 661 1065 637 1076 610 c 0
 1088 582 1094 551 1094 516 c 2
 1094 213 l 2
 1091 183 1084 155 1072 129 c 0
 1060 103 1044 80 1023 62 c 0
 1002 42 978 28 950 16 c 0
 923 6 892 0 858 0 c 2
 50 0 l 1
 50 740 l 1
240 190 m 1
 858 190 l 2
 869 190 878 191 884 194 c 0
 890 197 894 200 898 205 c 0
 900 210 902 215 902 220 c 0
 903 226 903 232 903 238 c 2
 903 484 l 2
 903 502 900 517 896 528 c 0
 890 540 878 546 859 546 c 2
 240 546 l 1
 240 190 l 1
EndSplineSet
Validated: 1
EndChar

StartChar: E
Encoding: 69 69 36
Width: 1123
Flags: W
HStem: 0 193<248.194 1083> 273 191<240 1083> 550 189<246.286 1083>
VStem: 47 192<211.565 273 464 530.39>
LayerCount: 2
Fore
SplineSet
1083 740 m 1
 1083 550 l 1
 284 550 l 2
 264 550 252 544 246 531 c 0
 242 518 239 504 239 488 c 2
 239 464 l 1
 1083 464 l 1
 1083 273 l 1
 240 273 l 1
 240 256 l 2
 240 238 242 223 248 211 c 0
 252 199 265 193 284 193 c 2
 1083 193 l 1
 1083 0 l 1
 284 0 l 2
 249 0 216 6 188 16 c 0
 158 28 134 43 112 64 c 0
 92 85 75 110 64 138 c 0
 53 168 47 200 47 235 c 2
 47 503 l 2
 47 536 53 566 65 596 c 0
 77 624 94 650 115 670 c 0
 136 692 161 708 190 720 c 0
 219 733 250 739 284 739 c 2
 1083 740 l 1
EndSplineSet
Validated: 1
EndChar

StartChar: F
Encoding: 70 70 37
Width: 1148
Flags: W
HStem: 0 21G<52 245> 0 21G<52 245> 273 191<245 1088> 550 189<252.194 1088>
VStem: 52 193<0 273 464 530.39>
LayerCount: 2
Fore
SplineSet
1088 740 m 1xb8
 1088 550 l 1
 289 550 l 2
 269 550 256 544 252 531 c 0
 246 518 244 504 244 488 c 2
 244 464 l 1
 1088 464 l 1
 1088 273 l 1
 245 273 l 1
 245 0 l 1
 52 0 l 1
 52 503 l 2
 52 536 58 566 70 596 c 0
 82 624 99 650 120 670 c 0
 141 692 166 708 195 720 c 0
 224 733 255 739 289 739 c 2
 1088 740 l 1xb8
EndSplineSet
Validated: 1
EndChar

StartChar: G
Encoding: 71 71 38
Width: 1154
Flags: W
HStem: 0 193<250.194 907.761> 273 191<585 915> 550 190<248.963 1108>
VStem: 49 193<211.565 544.841>
LayerCount: 2
Fore
SplineSet
286 550 m 1
 276 550 268 548 262 544 c 0
 257 541 252 536 250 530 c 0
 246 525 244 518 244 512 c 0
 242 504 242 497 242 489 c 2
 242 256 l 2
 242 238 244 223 250 211 c 0
 254 199 267 193 286 193 c 2
 874 193 l 2
 892 193 903 200 908 214 c 0
 913 228 915 248 915 273 c 1
 585 273 l 1
 585 464 l 1
 1108 464 l 1
 1108 0 l 1
 286 0 l 2
 251 0 218 6 190 16 c 0
 160 28 136 43 114 64 c 0
 94 85 77 110 66 138 c 0
 55 168 49 200 49 235 c 2
 49 503 l 2
 49 536 55 566 67 596 c 0
 79 624 96 650 117 671 c 0
 138 692 163 709 192 722 c 0
 221 734 252 740 286 740 c 2
 1108 740 l 1
 1108 550 l 1
 286 550 l 1
EndSplineSet
Validated: 5
EndChar

StartChar: H
Encoding: 72 72 39
Width: 1157
Flags: W
HStem: 0 21G<55 249 914 1110> 0 21G<55 249 914 1110> 279 188<249 914> 720 20G<55 248 917 1110> 720 20G<55 248 917 1110>
VStem: 55 194<0 279 467 740> 914 196<0 279 467 740>
LayerCount: 2
Fore
SplineSet
248 740 m 1xb6
 248 467 l 1
 917 467 l 1
 917 740 l 1
 1110 740 l 1
 1110 0 l 1
 914 0 l 1
 914 279 l 1
 249 279 l 1
 249 0 l 1
 55 0 l 1
 55 740 l 1
 248 740 l 1xb6
EndSplineSet
Validated: 1
EndChar

StartChar: I
Encoding: 73 73 40
Width: 300
Flags: W
HStem: 0 21G<48 254> 0 21G<48 254> 720 20G<48 254> 720 20G<48 254>
VStem: 48 206<0 740>
LayerCount: 2
Fore
SplineSet
254 740 m 1xa8
 254 0 l 1
 48 0 l 1
 48 740 l 1
 254 740 l 1xa8
EndSplineSet
Validated: 1
EndChar

StartChar: J
Encoding: 74 74 41
Width: 891
Flags: W
HStem: 0 194<48 642.717> 720 20G<662 855> 720 20G<662 855>
VStem: 662 193<198.187 740>
LayerCount: 2
Fore
SplineSet
662 740 m 1xd0
 855 740 l 1
 855 224 l 2
 855 188 849 156 838 128 c 0
 827 101 811 78 790 58 c 0
 770 40 746 25 716 15 c 0
 688 5 655 0 620 0 c 2
 48 0 l 1
 48 194 l 1
 618 194 l 2
 629 194 637 196 643 198 c 0
 649 202 654 205 656 210 c 0
 660 215 661 220 662 226 c 2
 662 246 l 1
 662 740 l 1xd0
EndSplineSet
Validated: 1
EndChar

StartChar: K
Encoding: 75 75 42
Width: 1139
Flags: W
HStem: 0 21G<47 253 674.026 1096> 0 21G<47 253 674.026 1096> 719 20G<47 253 674.387 1090> 719 20G<47 253 674.387 1090>
VStem: 47 206<0 313 420 739>
LayerCount: 2
Fore
SplineSet
253 420 m 1xa8
 260 434 267 446 275 458 c 0
 283 468 292 479 302 488 c 0
 313 498 325 508 339 517 c 0
 353 526 369 537 387 548 c 2
 708 739 l 1
 1090 739 l 1
 456 368 l 1
 1096 0 l 1
 709 0 l 1
 375 191 l 2
 344 208 318 226 300 244 c 0
 280 261 265 284 253 313 c 1
 253 0 l 1
 47 0 l 1
 47 739 l 1
 253 739 l 1
 253 420 l 1xa8
EndSplineSet
Validated: 1
EndChar

StartChar: L
Encoding: 76 76 43
Width: 896
Flags: W
HStem: 0 194<240.194 847> 720 20G<41 232> 720 20G<41 232>
VStem: 41 191<212.519 740>
LayerCount: 2
Fore
SplineSet
847 194 m 1xd0
 847 0 l 1
 277 0 l 2
 242 0 211 5 182 16 c 0
 153 26 128 41 108 60 c 0
 86 79 70 103 58 130 c 0
 47 158 41 189 41 224 c 2
 41 740 l 1
 232 740 l 1
 232 256 l 2
 232 238 234 223 240 212 c 0
 244 200 257 194 276 194 c 2
 847 194 l 1xd0
EndSplineSet
Validated: 1
EndChar

StartChar: M
Encoding: 77 77 44
Width: 1201
Flags: W
HStem: 0 21G<57 235 972 1151> 0 21G<57 235 972 1151> 720 20G<222.5 248 958.5 985.5> 720 20G<222.5 248 958.5 985.5>
VStem: 57 178<0 542> 972 179<0 542>
LayerCount: 2
Fore
SplineSet
235 0 m 1xac
 57 0 l 1
 57 542 l 2
 57 566 62 590 70 614 c 0
 80 637 92 658 108 677 c 0
 124 696 143 711 164 722 c 0
 186 734 210 740 235 740 c 0
 261 740 285 734 307 721 c 0
 329 708 349 692 367 673 c 0
 385 654 401 632 414 609 c 0
 428 586 439 563 448 542 c 2
 602 167 l 1
 759 542 l 2
 768 563 779 586 792 609 c 0
 805 632 821 654 839 673 c 0
 857 692 877 708 899 721 c 0
 921 734 945 740 972 740 c 0
 999 740 1023 734 1046 724 c 0
 1068 712 1087 698 1102 680 c 0
 1117 661 1129 640 1138 616 c 0
 1147 592 1151 567 1151 542 c 2
 1151 0 l 1
 972 0 l 1
 972 542 l 1
 795 155 l 2
 783 128 771 104 760 82 c 0
 748 61 735 42 720 28 c 0
 706 12 690 1 670 -7 c 0
 652 -15 629 -19 602 -19 c 0
 579 -19 557 -14 538 -4 c 0
 519 7 501 20 485 36 c 0
 469 53 455 72 442 92 c 0
 430 114 419 135 410 156 c 2
 235 542 l 1
 235 0 l 1xac
EndSplineSet
Validated: 1
EndChar

StartChar: N
Encoding: 78 78 45
Width: 1127
Flags: W
HStem: 0 21G<51 238> 0 21G<51 238> 730 10G<226 265 893 1081> 730 10G<226 265 893 1081>
VStem: 51 187<0 552> 893 188<196 740>
LayerCount: 2
Fore
SplineSet
51 575 m 2xac
 51 600 56 623 66 644 c 0
 77 665 91 684 108 700 c 0
 125 715 145 728 168 736 c 0
 191 746 214 750 238 750 c 0
 292 750 343 727 390 680 c 2
 893 196 l 1
 893 740 l 1
 1081 740 l 1
 1081 196 l 2
 1081 167 1076 140 1066 114 c 0
 1056 90 1042 68 1025 50 c 0
 1008 32 988 18 965 8 c 0
 942 -3 918 -8 893 -8 c 0
 879 -8 866 -6 854 -3 c 0
 841 0 828 6 812 15 c 0
 798 24 780 36 760 52 c 0
 741 67 717 87 689 112 c 2
 238 552 l 1
 238 0 l 1
 51 0 l 1
 51 575 l 2xac
EndSplineSet
Validated: 1
EndChar

StartChar: O
Encoding: 79 79 46
Width: 1134
Flags: W
HStem: 0 194<248.194 878.717> 550 190<243.181 892.776>
VStem: 49 191<212.519 546.4> 898 193<198.187 545.81>
LayerCount: 2
Fore
SplineSet
1091 224 m 2
 1091 188 1085 156 1074 128 c 0
 1063 101 1047 78 1026 58 c 0
 1006 40 982 25 952 15 c 0
 924 5 891 0 856 0 c 2
 285 0 l 2
 250 0 219 5 190 16 c 0
 161 26 136 41 116 60 c 0
 94 79 78 103 66 130 c 0
 55 158 49 189 49 224 c 2
 49 527 l 2
 52 557 59 585 72 611 c 0
 84 637 100 660 121 678 c 0
 142 698 166 712 194 724 c 0
 221 734 252 740 286 740 c 2
 856 740 l 2
 895 740 929 734 958 722 c 0
 987 711 1012 695 1032 674 c 0
 1051 653 1066 629 1076 600 c 0
 1086 571 1091 540 1091 505 c 2
 1091 224 l 2
898 488 m 2
 898 496 898 504 897 511 c 0
 896 518 895 525 892 530 c 0
 889 536 885 541 880 544 c 0
 874 548 866 550 856 550 c 2
 285 550 l 2
 274 550 265 549 259 546 c 0
 253 543 248 540 246 535 c 0
 242 530 241 525 240 520 c 2
 240 502 l 1
 240 256 l 2
 240 238 242 223 248 212 c 0
 252 200 265 194 284 194 c 2
 854 194 l 2
 865 194 873 196 879 198 c 0
 885 202 890 205 892 210 c 0
 896 215 897 220 898 226 c 2
 898 246 l 1
 898 488 l 2
EndSplineSet
Validated: 1
EndChar

StartChar: P
Encoding: 80 80 47
Width: 1167
Flags: W
HStem: 0 21G<52 250> 0 21G<52 250> 273 183<250 926.147> 550 191<250 936>
VStem: 52 198<0 273 456 550>
LayerCount: 2
Fore
SplineSet
936 741 m 2xb8
 985 741 1022 735 1049 724 c 0
 1076 713 1095 697 1108 676 c 0
 1120 655 1127 631 1129 602 c 0
 1131 573 1132 542 1132 508 c 0
 1132 475 1131 445 1129 416 c 0
 1127 388 1120 363 1108 342 c 0
 1095 321 1076 304 1049 292 c 0
 1022 279 985 273 936 273 c 2
 250 273 l 1
 250 0 l 1
 52 0 l 1
 52 741 l 1
 936 741 l 2xb8
250 550 m 1
 250 456 l 1
 884 456 l 2
 897 456 907 459 914 464 c 0
 921 469 926 476 930 486 c 0
 932 494 934 505 935 516 c 0
 936 527 936 539 936 550 c 1
 250 550 l 1
EndSplineSet
Validated: 1
EndChar

StartChar: Q
Encoding: 81 81 48
Width: 1195
Flags: W
HStem: 0 194<228.286 859.717 1072 1149> 550 190<232.239 873.776>
VStem: 29 192<212.519 535.531> 879 193<210.234 545.81>
LayerCount: 2
Fore
SplineSet
266 0 m 2
 231 0 200 5 170 16 c 0
 142 27 116 42 96 61 c 0
 74 80 58 104 46 132 c 0
 35 159 29 190 29 224 c 2
 29 346 l 1
 29 429 l 1
 29 481 l 1
 29 509 l 2
 29 516 29 520 30 522 c 2
 30 527 l 2
 33 557 40 585 52 611 c 0
 65 637 81 660 102 678 c 0
 123 698 147 712 174 724 c 0
 202 734 233 740 267 740 c 2
 837 740 l 2
 876 740 910 734 939 722 c 0
 968 711 993 695 1012 674 c 0
 1032 653 1047 629 1057 600 c 0
 1067 571 1072 540 1072 505 c 2
 1072 193 l 1
 1149 193 l 1
 1149 0 l 1
 266 0 l 2
266 550 m 2
 249 549 237 544 232 536 c 0
 226 526 222 515 221 502 c 2
 221 256 l 2
 221 238 224 223 228 212 c 0
 234 200 246 194 265 194 c 2
 835 194 l 2
 846 194 854 196 860 198 c 0
 866 202 870 205 874 210 c 0
 876 215 878 220 878 226 c 0
 879 233 879 239 879 246 c 2
 879 488 l 2
 879 496 879 504 878 511 c 0
 877 518 876 525 873 530 c 0
 870 536 866 541 860 544 c 0
 855 548 847 550 837 550 c 2
 266 550 l 2
EndSplineSet
Validated: 1
EndChar

StartChar: R
Encoding: 82 82 49
Width: 1151
Flags: W
HStem: 0 21G<51 245 927.609 1125> 0 21G<51 245 927.609 1125> 276 186<245 885.817> 550 189<245 897>
VStem: 51 194<0 276 462 550> 897 186<469.565 550>
LayerCount: 2
Fore
SplineSet
52 739 m 1xbc
 897 739 l 2
 944 739 980 735 1004 727 c 0
 1030 719 1048 706 1060 688 c 0
 1071 670 1078 646 1080 616 c 0
 1082 586 1083 549 1083 505 c 0
 1083 484 1082 467 1080 454 c 0
 1078 442 1075 432 1072 424 c 0
 1069 415 1064 408 1059 401 c 0
 1054 394 1048 386 1041 376 c 1
 1046 368 1052 361 1058 354 c 0
 1063 348 1068 341 1074 334 c 0
 1078 326 1082 318 1086 308 c 0
 1088 300 1090 289 1090 276 c 2
 1125 0 l 1
 930 0 l 1
 897 276 l 1
 245 276 l 1
 245 0 l 1
 51 0 l 1
 52 739 l 1xbc
245 462 m 1
 853 462 l 2
 870 462 882 471 888 489 c 0
 894 507 897 527 897 550 c 1
 245 550 l 1
 245 462 l 1
EndSplineSet
Validated: 1
EndChar

StartChar: S
Encoding: 83 83 50
Width: 1220
Flags: W
HStem: 0 185<88 969.559> 273 188<253.085 982.358> 551 188<245.169 1124>
VStem: 41 202<469.678 549.904> 982 192<195.232 272.088>
LayerCount: 2
Fore
SplineSet
923 461 m 2
 978 461 1022 455 1054 443 c 0
 1088 431 1113 414 1130 394 c 0
 1148 372 1160 348 1166 320 c 0
 1171 291 1174 260 1174 227 c 0
 1174 194 1171 163 1165 136 c 0
 1159 108 1147 84 1130 64 c 0
 1112 44 1087 28 1054 17 c 0
 1021 6 978 0 925 0 c 2
 88 0 l 1
 88 185 l 1
 921 185 l 2
 936 185 947 187 956 192 c 0
 964 197 970 203 974 211 c 0
 978 219 980 228 982 239 c 0
 982 250 983 261 983 273 c 1
 293 273 l 2
 240 273 198 279 165 290 c 0
 132 301 107 317 88 338 c 0
 70 358 58 382 51 410 c 0
 44 439 41 470 41 503 c 0
 41 539 43 572 48 600 c 0
 53 630 64 654 80 674 c 0
 98 695 123 711 156 722 c 0
 190 733 236 739 293 739 c 2
 1124 739 l 1
 1124 551 l 1
 243 551 l 1
 243 541 243 531 244 520 c 0
 245 510 246 500 250 492 c 0
 252 482 257 475 264 470 c 0
 271 464 280 461 293 461 c 2
 923 461 l 2
EndSplineSet
Validated: 1
EndChar

StartChar: T
Encoding: 84 84 51
Width: 1141
Flags: W
HStem: 0 21G<482 668> 0 21G<482 668> 548 191<49 482 668 1098>
VStem: 482 186<0 548>
LayerCount: 2
Fore
SplineSet
49 739 m 1xb0
 1098 739 l 1
 1098 550 l 1
 668 550 l 1
 668 0 l 1
 482 0 l 1
 482 548 l 1
 49 548 l 1
 49 739 l 1xb0
EndSplineSet
Validated: 1
EndChar

StartChar: U
Encoding: 85 85 52
Width: 1154
Flags: W
HStem: 0 194<260.194 890.717> 720 20G<61 252 910.96 1103> 720 20G<61 252 910.96 1103>
VStem: 61 191<212.519 740> 910 193<198.187 740>
LayerCount: 2
Fore
SplineSet
911 740 m 1xd8
 1103 740 l 1
 1103 224 l 2
 1103 188 1097 156 1086 128 c 0
 1075 101 1059 78 1038 58 c 0
 1018 40 994 25 964 15 c 0
 936 5 903 0 868 0 c 2
 297 0 l 2
 262 0 231 5 202 16 c 0
 173 26 148 41 128 60 c 0
 106 79 90 103 78 130 c 0
 67 158 61 189 61 224 c 2
 61 740 l 1
 252 740 l 1
 252 256 l 2
 252 238 254 223 260 212 c 0
 264 200 277 194 296 194 c 2
 866 194 l 2
 877 194 885 196 891 198 c 0
 897 202 902 205 904 210 c 0
 908 215 909 220 910 226 c 2
 910 246 l 1
 911 740 l 1xd8
EndSplineSet
Validated: 1
EndChar

StartChar: V
Encoding: 86 86 53
Width: 1021
Flags: W
HStem: 719 20G<-2 223.65 798.134 1021> 719 20G<-2 223.65 798.134 1021>
LayerCount: 2
Fore
SplineSet
213 739 m 1x80
 508 185 l 1
 809 739 l 1
 1021 739 l 1
 717 166 l 2
 704 142 691 120 678 98 c 0
 665 78 650 59 634 44 c 0
 618 28 600 16 580 6 c 0
 559 -2 535 -7 508 -7 c 0
 482 -7 459 -2 438 7 c 0
 417 16 399 29 382 44 c 0
 365 60 350 78 336 100 c 0
 323 120 310 143 298 166 c 2
 -2 739 l 1
 213 739 l 1x80
EndSplineSet
Validated: 1
EndChar

StartChar: W
Encoding: 87 87 54
Width: 1202
Flags: W
HStem: 0 21G<270.5 319 884 930.5> 0 21G<270.5 319 884 930.5> 719 20G<0 199.813 583 617.5 1008.11 1200> 719 20G<0 199.813 1008.11 1200>
LayerCount: 2
Fore
SplineSet
196 739 m 1xa0
 298 204 l 1
 422 610 l 2
 436 656 458 692 489 717 c 0
 520 742 559 755 607 755 c 0
 628 755 648 751 666 744 c 0
 686 737 703 727 718 714 c 0
 734 701 748 686 760 668 c 0
 771 650 780 631 786 610 c 2
 908 204 l 1
 1012 739 l 1
 1200 739 l 1
 1091 149 l 2
 1082 101 1061 64 1028 38 c 0
 994 13 954 0 907 0 c 0
 861 0 822 13 790 40 c 0
 757 66 734 102 721 149 c 2
 607 550 l 1
 485 149 l 2
 471 102 448 66 416 40 c 0
 383 13 343 0 295 0 c 0
 246 0 205 12 174 36 c 0
 142 59 121 97 112 149 c 2
 0 739 l 1
 196 739 l 1xa0
EndSplineSet
Validated: 1
EndChar

StartChar: X
Encoding: 88 88 55
Width: 1109
Flags: W
HStem: 0 21G<39 299.321 811.679 1072> 0 21G<39 299.321 811.679 1072> 718 20G<39 299.557 811.443 1072>
LayerCount: 2
Fore
SplineSet
39 738 m 1xa0
 282 738 l 1
 476 517 l 2
 480 512 486 505 494 496 c 0
 502 488 510 479 518 469 c 0
 526 459 534 449 540 438 c 0
 548 428 552 419 555 410 c 2
 555 325 l 2
 552 316 548 307 540 298 c 0
 534 288 526 278 518 269 c 0
 510 260 502 251 494 243 c 0
 486 235 480 229 476 224 c 2
 282 0 l 1
 39 0 l 1
 354 367 l 1
 39 738 l 1xa0
1072 0 m 1
 829 0 l 1
 635 224 l 2
 631 229 625 235 617 243 c 0
 609 251 601 260 593 269 c 0
 585 278 578 288 570 298 c 0
 564 307 559 316 556 325 c 2
 556 410 l 2
 559 419 564 428 570 438 c 0
 578 449 585 459 593 469 c 0
 601 479 609 488 617 496 c 0
 625 505 631 512 635 517 c 2
 829 738 l 1
 1072 738 l 1
 757 367 l 1
 1072 0 l 1
EndSplineSet
Validated: 1
EndChar

StartChar: Y
Encoding: 89 89 56
Width: 1129
Flags: W
HStem: 0 194<278 872.717> 304 194<242.194 882.761> 720 20G<43 234 893 1085> 720 20G<43 234 893 1085>
VStem: 43 191<516.519 740> 892 193<198.187 306 509.33 740>
LayerCount: 2
Fore
SplineSet
892 306 m 1xec
 885 305 878 305 871 304 c 2
 850 304 l 1
 279 304 l 2
 244 304 213 309 184 320 c 0
 155 330 130 345 110 364 c 0
 88 383 72 407 60 434 c 0
 49 462 43 493 43 528 c 2
 43 740 l 1
 234 740 l 1
 234 560 l 2
 234 542 236 527 242 516 c 0
 246 504 259 498 278 498 c 2
 848 498 l 2
 866 498 878 502 883 509 c 0
 888 516 892 525 893 536 c 2
 893 740 l 1
 1085 740 l 1
 1085 224 l 2
 1085 188 1079 156 1068 128 c 0
 1057 101 1041 78 1020 58 c 0
 1000 40 976 25 946 15 c 0
 918 5 885 0 850 0 c 2
 278 0 l 1
 278 194 l 1
 848 194 l 2
 859 194 867 196 873 198 c 0
 879 202 884 205 886 210 c 0
 890 215 891 220 892 226 c 2
 892 246 l 1
 892 306 l 1xec
EndSplineSet
Validated: 1
EndChar

StartChar: Z
Encoding: 90 90 57
Width: 1238
Flags: W
HStem: 0 196<290 1160> 552 188<72 978>
LayerCount: 2
Fore
SplineSet
997 740 m 2
 1047 740 1085 735 1112 724 c 0
 1139 714 1158 700 1171 682 c 0
 1184 664 1191 643 1193 618 c 0
 1195 594 1196 568 1196 541 c 0
 1196 518 1192 496 1184 476 c 0
 1177 457 1166 439 1152 423 c 0
 1139 407 1122 394 1103 382 c 0
 1084 372 1062 364 1039 359 c 2
 290 196 l 1
 1160 196 l 1
 1160 0 l 1
 271 0 l 2
 214 0 170 5 138 14 c 0
 108 24 85 38 70 56 c 0
 56 74 48 95 45 120 c 0
 42 145 41 172 41 202 c 0
 41 224 42 244 44 260 c 0
 46 278 53 293 64 308 c 0
 75 322 94 336 118 348 c 0
 144 362 179 375 225 389 c 2
 978 552 l 1
 72 552 l 1
 72 740 l 1
 997 740 l 2
EndSplineSet
Validated: 1
EndChar

StartChar: bracketleft
Encoding: 91 91 58
Width: 569
Flags: W
HStem: -150 149<319 536 319 536> 714 149<319 536 319 319>
VStem: 139 180<-1 714 -1 863 -1 863> 139 397<-150 -1 714 863>
LayerCount: 2
Fore
SplineSet
139 -150 m 1xd0
 139 863 l 1
 536 863 l 1
 536 714 l 1xd0
 319 714 l 1
 319 -1 l 1xe0
 536 -1 l 1
 536 -150 l 1
 139 -150 l 1xd0
EndSplineSet
Validated: 1
EndChar

StartChar: backslash
Encoding: 92 92 59
Width: 1051
Flags: W
HStem: 0 21G<753.027 1033> 0 21G<753.027 1033> 720 20G<34 313> 720 20G<34 313>
LayerCount: 2
Fore
SplineSet
293 740 m 1xa0
 1033 0 l 1
 773 0 l 1
 34 740 l 1
 293 740 l 1xa0
EndSplineSet
Validated: 1
EndChar

StartChar: bracketright
Encoding: 93 93 60
Width: 755
Flags: W
HStem: -155 149<323 540> 709 149<323 540>
VStem: 323 397<-155 -6 709 858> 540 180<-6 709>
LayerCount: 2
Fore
SplineSet
720 858 m 1xe0
 720 -155 l 1
 323 -155 l 1
 323 -6 l 1xe0
 540 -6 l 1
 540 709 l 1xd0
 323 709 l 1
 323 858 l 1
 720 858 l 1xe0
EndSplineSet
Validated: 1
EndChar

StartChar: asciicircum
Encoding: 94 94 61
Width: 569
Flags: W
HStem: -150 149<319 536 319 536> 714 149<319 536 319 319>
VStem: 139 180<-1 714 -1 863 -1 863> 139 397<-150 -1 714 863>
LayerCount: 2
Fore
SplineSet
139 -150 m 1xd0
 139 863 l 1
 536 863 l 1
 536 714 l 1xd0
 319 714 l 1
 319 -1 l 1xe0
 536 -1 l 1
 536 -150 l 1
 139 -150 l 1xd0
EndSplineSet
Validated: 1
EndChar

StartChar: underscore
Encoding: 95 95 62
Width: 654
Flags: W
HStem: -104 148<0 653>
LayerCount: 2
Fore
SplineSet
0 -104 m 1
 -1 44 l 1
 653 44 l 1
 654 -104 l 1
 0 -104 l 1
EndSplineSet
Validated: 1
EndChar

StartChar: grave
Encoding: 96 96 63
Width: 569
Flags: W
HStem: -150 149<319 536 319 536> 714 149<319 536 319 319>
VStem: 139 180<-1 714 -1 863 -1 863> 139 397<-150 -1 714 863>
LayerCount: 2
Fore
SplineSet
139 -150 m 1xd0
 139 863 l 1
 536 863 l 1
 536 714 l 1xd0
 319 714 l 1
 319 -1 l 1xe0
 536 -1 l 1
 536 -150 l 1
 139 -150 l 1xd0
EndSplineSet
Validated: 1
EndChar

StartChar: a
Encoding: 97 97 64
Width: 1070
Flags: W
HStem: 0 21G<0 312.895 843 1030> 0 21G<0 312.895 843 1030> 190 159<641 843> 730 20G<816 855> 730 20G<816 855>
VStem: 843 187<0 190 349 552>
LayerCount: 2
Fore
SplineSet
1030 575 m 1xb4
 1030 0 l 1
 843 0 l 1
 843 190 l 1
 482 190 l 1
 293 0 l 1
 0 0 l 1
 691 680 l 2
 738 727 789 750 843 750 c 0
 867 750 890 747 912 741 c 0
 935 735 955 725 972 712 c 0
 990 699 1004 681 1014 658 c 0
 1025 636 1030 609 1030 577 c 2
 1030 575 l 1xb4
843 552 m 1
 641 349 l 1
 843 349 l 1
 843 552 l 1
EndSplineSet
Validated: 1
EndChar

StartChar: b
Encoding: 98 98 65
Width: 1157
Flags: W
HStem: 0 191<247 898.301> 276 191<247 907> 550 191<247 888.717>
VStem: 51 196<191 276 467 550>
LayerCount: 2
Fore
SplineSet
52 741 m 1
 871 741 l 2
 929 741 974 735 1006 724 c 0
 1037 713 1060 697 1075 676 c 0
 1090 655 1098 631 1100 603 c 0
 1103 575 1104 544 1104 511 c 2
 1104 475 l 2
 1103 463 1102 451 1099 440 c 0
 1096 428 1092 416 1086 406 c 0
 1081 394 1073 384 1062 373 c 1
 1069 363 1076 353 1082 343 c 0
 1090 333 1096 322 1101 311 c 0
 1106 300 1111 287 1114 274 c 0
 1118 261 1120 246 1120 229 c 0
 1120 196 1118 165 1114 137 c 0
 1110 109 1100 85 1083 64 c 0
 1066 44 1042 28 1008 17 c 0
 976 6 930 0 872 0 c 2
 51 0 l 1
 52 741 l 1
907 467 m 1
 907 478 907 489 906 499 c 0
 906 509 905 518 902 526 c 0
 899 533 895 539 889 544 c 0
 883 548 875 550 864 550 c 2
 247 550 l 1
 247 467 l 1
 907 467 l 1
864 190 m 2
 875 190 883 192 888 197 c 0
 894 202 898 208 901 216 c 0
 904 224 905 233 906 244 c 0
 907 254 907 265 907 276 c 1
 247 276 l 1
 247 191 l 1
 864 190 l 2
EndSplineSet
Validated: 1
EndChar

StartChar: c
Encoding: 99 99 66
Width: 1147
Flags: W
HStem: 1 194<246.194 1098> 551 189<241.181 1096>
VStem: 47 191<212.565 547.4>
LayerCount: 2
Fore
SplineSet
1098 195 m 1
 1098 1 l 1
 283 1 l 2
 248 1 217 6 188 16 c 0
 159 27 134 42 114 61 c 0
 92 80 76 104 64 132 c 0
 53 159 47 190 47 225 c 2
 47 528 l 2
 50 558 57 586 70 612 c 0
 82 637 98 660 119 678 c 0
 140 698 164 712 192 724 c 0
 219 734 250 740 284 740 c 2
 1096 740 l 1
 1096 551 l 1
 283 551 l 2
 272 551 263 550 257 547 c 0
 251 544 246 541 244 536 c 0
 240 531 239 526 238 520 c 2
 238 503 l 1
 238 257 l 2
 238 239 240 224 246 212 c 0
 250 201 263 195 282 195 c 2
 1098 195 l 1
EndSplineSet
Validated: 1
EndChar

StartChar: d
Encoding: 100 100 67
Width: 1131
Flags: W
HStem: 0 190<240 897.812> 546 194<240 895.714>
VStem: 50 190<190 546> 903 191<205.234 527.481>
LayerCount: 2
Fore
SplineSet
50 740 m 1
 857 740 l 2
 892 740 924 735 952 724 c 0
 982 714 1006 699 1028 680 c 0
 1048 661 1065 637 1076 610 c 0
 1088 582 1094 551 1094 516 c 2
 1094 213 l 2
 1091 183 1084 155 1072 129 c 0
 1060 103 1044 80 1023 62 c 0
 1002 42 978 28 950 16 c 0
 923 6 892 0 858 0 c 2
 50 0 l 1
 50 740 l 1
240 190 m 1
 858 190 l 2
 869 190 878 191 884 194 c 0
 890 197 894 200 898 205 c 0
 900 210 902 215 902 220 c 0
 903 226 903 232 903 238 c 2
 903 484 l 2
 903 502 900 517 896 528 c 0
 890 540 878 546 859 546 c 2
 240 546 l 1
 240 190 l 1
EndSplineSet
Validated: 1
EndChar

StartChar: e
Encoding: 101 101 68
Width: 1123
Flags: W
HStem: 0 193<248.194 1083> 273 191<240 1083> 550 189<246.286 1083>
VStem: 47 192<211.565 273 464 530.39>
LayerCount: 2
Fore
SplineSet
1083 740 m 1
 1083 550 l 1
 284 550 l 2
 264 550 252 544 246 531 c 0
 242 518 239 504 239 488 c 2
 239 464 l 1
 1083 464 l 1
 1083 273 l 1
 240 273 l 1
 240 256 l 2
 240 238 242 223 248 211 c 0
 252 199 265 193 284 193 c 2
 1083 193 l 1
 1083 0 l 1
 284 0 l 2
 249 0 216 6 188 16 c 0
 158 28 134 43 112 64 c 0
 92 85 75 110 64 138 c 0
 53 168 47 200 47 235 c 2
 47 503 l 2
 47 536 53 566 65 596 c 0
 77 624 94 650 115 670 c 0
 136 692 161 708 190 720 c 0
 219 733 250 739 284 739 c 2
 1083 740 l 1
EndSplineSet
Validated: 1
EndChar

StartChar: f
Encoding: 102 102 69
Width: 1148
Flags: W
HStem: 0 21G<52 245> 0 21G<52 245> 273 191<245 1088> 550 189<252.194 1088>
VStem: 52 193<0 273 464 530.39>
LayerCount: 2
Fore
SplineSet
1088 740 m 1xb8
 1088 550 l 1
 289 550 l 2
 269 550 256 544 252 531 c 0
 246 518 244 504 244 488 c 2
 244 464 l 1
 1088 464 l 1
 1088 273 l 1
 245 273 l 1
 245 0 l 1
 52 0 l 1
 52 503 l 2
 52 536 58 566 70 596 c 0
 82 624 99 650 120 670 c 0
 141 692 166 708 195 720 c 0
 224 733 255 739 289 739 c 2
 1088 740 l 1xb8
EndSplineSet
Validated: 1
EndChar

StartChar: g
Encoding: 103 103 70
Width: 1154
Flags: W
HStem: 0 193<250.194 907.761> 273 191<585 915> 550 190<248.963 1108>
VStem: 49 193<211.565 544.841>
LayerCount: 2
Fore
SplineSet
286 550 m 1
 276 550 268 548 262 544 c 0
 257 541 252 536 250 530 c 0
 246 525 244 518 244 512 c 0
 242 504 242 497 242 489 c 2
 242 256 l 2
 242 238 244 223 250 211 c 0
 254 199 267 193 286 193 c 2
 874 193 l 2
 892 193 903 200 908 214 c 0
 913 228 915 248 915 273 c 1
 585 273 l 1
 585 464 l 1
 1108 464 l 1
 1108 0 l 1
 286 0 l 2
 251 0 218 6 190 16 c 0
 160 28 136 43 114 64 c 0
 94 85 77 110 66 138 c 0
 55 168 49 200 49 235 c 2
 49 503 l 2
 49 536 55 566 67 596 c 0
 79 624 96 650 117 671 c 0
 138 692 163 709 192 722 c 0
 221 734 252 740 286 740 c 2
 1108 740 l 1
 1108 550 l 1
 286 550 l 1
EndSplineSet
Validated: 5
EndChar

StartChar: h
Encoding: 104 104 71
Width: 1157
Flags: W
HStem: 0 21G<55 249 914 1110> 0 21G<55 249 914 1110> 279 188<249 914> 720 20G<55 248 917 1110> 720 20G<55 248 917 1110>
VStem: 55 194<0 279 467 740> 914 196<0 279 467 740>
LayerCount: 2
Fore
SplineSet
248 740 m 1xb6
 248 467 l 1
 917 467 l 1
 917 740 l 1
 1110 740 l 1
 1110 0 l 1
 914 0 l 1
 914 279 l 1
 249 279 l 1
 249 0 l 1
 55 0 l 1
 55 740 l 1
 248 740 l 1xb6
EndSplineSet
Validated: 1
EndChar

StartChar: i
Encoding: 105 105 72
Width: 300
Flags: W
HStem: 0 21G<48 254> 0 21G<48 254> 720 20G<48 254> 720 20G<48 254>
VStem: 48 206<0 740>
LayerCount: 2
Fore
SplineSet
254 740 m 1xa8
 254 0 l 1
 48 0 l 1
 48 740 l 1
 254 740 l 1xa8
EndSplineSet
Validated: 1
EndChar

StartChar: j
Encoding: 106 106 73
Width: 891
Flags: W
HStem: 0 194<48 642.717> 720 20G<662 855> 720 20G<662 855>
VStem: 662 193<198.187 740>
LayerCount: 2
Fore
SplineSet
662 740 m 1xd0
 855 740 l 1
 855 224 l 2
 855 188 849 156 838 128 c 0
 827 101 811 78 790 58 c 0
 770 40 746 25 716 15 c 0
 688 5 655 0 620 0 c 2
 48 0 l 1
 48 194 l 1
 618 194 l 2
 629 194 637 196 643 198 c 0
 649 202 654 205 656 210 c 0
 660 215 661 220 662 226 c 2
 662 246 l 1
 662 740 l 1xd0
EndSplineSet
Validated: 1
EndChar

StartChar: k
Encoding: 107 107 74
Width: 1139
Flags: W
HStem: 0 21G<47 253 674.026 1096> 0 21G<47 253 674.026 1096> 719 20G<47 253 674.387 1090> 719 20G<47 253 674.387 1090>
VStem: 47 206<0 313 420 739>
LayerCount: 2
Fore
SplineSet
253 420 m 1xa8
 260 434 267 446 275 458 c 0
 283 468 292 479 302 488 c 0
 313 498 325 508 339 517 c 0
 353 526 369 537 387 548 c 2
 708 739 l 1
 1090 739 l 1
 456 368 l 1
 1096 0 l 1
 709 0 l 1
 375 191 l 2
 344 208 318 226 300 244 c 0
 280 261 265 284 253 313 c 1
 253 0 l 1
 47 0 l 1
 47 739 l 1
 253 739 l 1
 253 420 l 1xa8
EndSplineSet
Validated: 1
EndChar

StartChar: l
Encoding: 108 108 75
Width: 896
Flags: W
HStem: 0 194<240.194 847> 720 20G<41 232> 720 20G<41 232>
VStem: 41 191<212.519 740>
LayerCount: 2
Fore
SplineSet
847 194 m 1xd0
 847 0 l 1
 277 0 l 2
 242 0 211 5 182 16 c 0
 153 26 128 41 108 60 c 0
 86 79 70 103 58 130 c 0
 47 158 41 189 41 224 c 2
 41 740 l 1
 232 740 l 1
 232 256 l 2
 232 238 234 223 240 212 c 0
 244 200 257 194 276 194 c 2
 847 194 l 1xd0
EndSplineSet
Validated: 1
EndChar

StartChar: m
Encoding: 109 109 76
Width: 1201
Flags: W
HStem: 0 21G<57 235 972 1151> 0 21G<57 235 972 1151> 720 20G<222.5 248 958.5 985.5> 720 20G<222.5 248 958.5 985.5>
VStem: 57 178<0 542> 972 179<0 542>
LayerCount: 2
Fore
SplineSet
235 0 m 1xac
 57 0 l 1
 57 542 l 2
 57 566 62 590 70 614 c 0
 80 637 92 658 108 677 c 0
 124 696 143 711 164 722 c 0
 186 734 210 740 235 740 c 0
 261 740 285 734 307 721 c 0
 329 708 349 692 367 673 c 0
 385 654 401 632 414 609 c 0
 428 586 439 563 448 542 c 2
 602 167 l 1
 759 542 l 2
 768 563 779 586 792 609 c 0
 805 632 821 654 839 673 c 0
 857 692 877 708 899 721 c 0
 921 734 945 740 972 740 c 0
 999 740 1023 734 1046 724 c 0
 1068 712 1087 698 1102 680 c 0
 1117 661 1129 640 1138 616 c 0
 1147 592 1151 567 1151 542 c 2
 1151 0 l 1
 972 0 l 1
 972 542 l 1
 795 155 l 2
 783 128 771 104 760 82 c 0
 748 61 735 42 720 28 c 0
 706 12 690 1 670 -7 c 0
 652 -15 629 -19 602 -19 c 0
 579 -19 557 -14 538 -4 c 0
 519 7 501 20 485 36 c 0
 469 53 455 72 442 92 c 0
 430 114 419 135 410 156 c 2
 235 542 l 1
 235 0 l 1xac
EndSplineSet
Validated: 1
EndChar

StartChar: n
Encoding: 110 110 77
Width: 1127
Flags: W
HStem: 0 21G<51 238> 0 21G<51 238> 730 10G<226 265 893 1081> 730 10G<226 265 893 1081>
VStem: 51 187<0 552> 893 188<196 740>
LayerCount: 2
Fore
SplineSet
51 575 m 2xac
 51 600 56 623 66 644 c 0
 77 665 91 684 108 700 c 0
 125 715 145 728 168 736 c 0
 191 746 214 750 238 750 c 0
 292 750 343 727 390 680 c 2
 893 196 l 1
 893 740 l 1
 1081 740 l 1
 1081 196 l 2
 1081 167 1076 140 1066 114 c 0
 1056 90 1042 68 1025 50 c 0
 1008 32 988 18 965 8 c 0
 942 -3 918 -8 893 -8 c 0
 879 -8 866 -6 854 -3 c 0
 841 0 828 6 812 15 c 0
 798 24 780 36 760 52 c 0
 741 67 717 87 689 112 c 2
 238 552 l 1
 238 0 l 1
 51 0 l 1
 51 575 l 2xac
EndSplineSet
Validated: 1
EndChar

StartChar: o
Encoding: 111 111 78
Width: 1134
Flags: W
HStem: 0 194<248.194 878.717> 550 190<243.181 892.776>
VStem: 49 191<212.519 546.4> 898 193<198.187 545.81>
LayerCount: 2
Fore
SplineSet
1091 224 m 2
 1091 188 1085 156 1074 128 c 0
 1063 101 1047 78 1026 58 c 0
 1006 40 982 25 952 15 c 0
 924 5 891 0 856 0 c 2
 285 0 l 2
 250 0 219 5 190 16 c 0
 161 26 136 41 116 60 c 0
 94 79 78 103 66 130 c 0
 55 158 49 189 49 224 c 2
 49 527 l 2
 52 557 59 585 72 611 c 0
 84 637 100 660 121 678 c 0
 142 698 166 712 194 724 c 0
 221 734 252 740 286 740 c 2
 856 740 l 2
 895 740 929 734 958 722 c 0
 987 711 1012 695 1032 674 c 0
 1051 653 1066 629 1076 600 c 0
 1086 571 1091 540 1091 505 c 2
 1091 224 l 2
898 488 m 2
 898 496 898 504 897 511 c 0
 896 518 895 525 892 530 c 0
 889 536 885 541 880 544 c 0
 874 548 866 550 856 550 c 2
 285 550 l 2
 274 550 265 549 259 546 c 0
 253 543 248 540 246 535 c 0
 242 530 241 525 240 520 c 2
 240 502 l 1
 240 256 l 2
 240 238 242 223 248 212 c 0
 252 200 265 194 284 194 c 2
 854 194 l 2
 865 194 873 196 879 198 c 0
 885 202 890 205 892 210 c 0
 896 215 897 220 898 226 c 2
 898 246 l 1
 898 488 l 2
EndSplineSet
Validated: 1
EndChar

StartChar: p
Encoding: 112 112 79
Width: 1167
Flags: W
HStem: 0 21G<52 250> 0 21G<52 250> 273 183<250 926.147> 550 191<250 936>
VStem: 52 198<0 273 456 550>
LayerCount: 2
Fore
SplineSet
936 741 m 2xb8
 985 741 1022 735 1049 724 c 0
 1076 713 1095 697 1108 676 c 0
 1120 655 1127 631 1129 602 c 0
 1131 573 1132 542 1132 508 c 0
 1132 475 1131 445 1129 416 c 0
 1127 388 1120 363 1108 342 c 0
 1095 321 1076 304 1049 292 c 0
 1022 279 985 273 936 273 c 2
 250 273 l 1
 250 0 l 1
 52 0 l 1
 52 741 l 1
 936 741 l 2xb8
250 550 m 1
 250 456 l 1
 884 456 l 2
 897 456 907 459 914 464 c 0
 921 469 926 476 930 486 c 0
 932 494 934 505 935 516 c 0
 936 527 936 539 936 550 c 1
 250 550 l 1
EndSplineSet
Validated: 1
EndChar

StartChar: q
Encoding: 113 113 80
Width: 1195
Flags: W
HStem: 0 194<228.286 859.717 1072 1149> 550 190<232.239 873.776>
VStem: 29 192<212.519 535.531> 879 193<210.234 545.81>
LayerCount: 2
Fore
SplineSet
266 0 m 2
 231 0 200 5 170 16 c 0
 142 27 116 42 96 61 c 0
 74 80 58 104 46 132 c 0
 35 159 29 190 29 224 c 2
 29 346 l 1
 29 429 l 1
 29 481 l 1
 29 509 l 2
 29 516 29 520 30 522 c 2
 30 527 l 2
 33 557 40 585 52 611 c 0
 65 637 81 660 102 678 c 0
 123 698 147 712 174 724 c 0
 202 734 233 740 267 740 c 2
 837 740 l 2
 876 740 910 734 939 722 c 0
 968 711 993 695 1012 674 c 0
 1032 653 1047 629 1057 600 c 0
 1067 571 1072 540 1072 505 c 2
 1072 193 l 1
 1149 193 l 1
 1149 0 l 1
 266 0 l 2
266 550 m 2
 249 549 237 544 232 536 c 0
 226 526 222 515 221 502 c 2
 221 256 l 2
 221 238 224 223 228 212 c 0
 234 200 246 194 265 194 c 2
 835 194 l 2
 846 194 854 196 860 198 c 0
 866 202 870 205 874 210 c 0
 876 215 878 220 878 226 c 0
 879 233 879 239 879 246 c 2
 879 488 l 2
 879 496 879 504 878 511 c 0
 877 518 876 525 873 530 c 0
 870 536 866 541 860 544 c 0
 855 548 847 550 837 550 c 2
 266 550 l 2
EndSplineSet
Validated: 1
EndChar

StartChar: r
Encoding: 114 114 81
Width: 1151
Flags: W
HStem: 0 21G<51 245 927.609 1125> 0 21G<51 245 927.609 1125> 276 186<245 885.817> 550 189<245 897>
VStem: 51 194<0 276 462 550> 897 186<469.565 550>
LayerCount: 2
Fore
SplineSet
52 739 m 1xbc
 897 739 l 2
 944 739 980 735 1004 727 c 0
 1030 719 1048 706 1060 688 c 0
 1071 670 1078 646 1080 616 c 0
 1082 586 1083 549 1083 505 c 0
 1083 484 1082 467 1080 454 c 0
 1078 442 1075 432 1072 424 c 0
 1069 415 1064 408 1059 401 c 0
 1054 394 1048 386 1041 376 c 1
 1046 368 1052 361 1058 354 c 0
 1063 348 1068 341 1074 334 c 0
 1078 326 1082 318 1086 308 c 0
 1088 300 1090 289 1090 276 c 2
 1125 0 l 1
 930 0 l 1
 897 276 l 1
 245 276 l 1
 245 0 l 1
 51 0 l 1
 52 739 l 1xbc
245 462 m 1
 853 462 l 2
 870 462 882 471 888 489 c 0
 894 507 897 527 897 550 c 1
 245 550 l 1
 245 462 l 1
EndSplineSet
Validated: 1
EndChar

StartChar: s
Encoding: 115 115 82
Width: 1220
Flags: W
HStem: 0 185<88 969.559> 273 188<253.085 982.358> 551 188<245.169 1124>
VStem: 41 202<469.678 549.904> 982 192<195.232 272.088>
LayerCount: 2
Fore
SplineSet
923 461 m 2
 978 461 1022 455 1054 443 c 0
 1088 431 1113 414 1130 394 c 0
 1148 372 1160 348 1166 320 c 0
 1171 291 1174 260 1174 227 c 0
 1174 194 1171 163 1165 136 c 0
 1159 108 1147 84 1130 64 c 0
 1112 44 1087 28 1054 17 c 0
 1021 6 978 0 925 0 c 2
 88 0 l 1
 88 185 l 1
 921 185 l 2
 936 185 947 187 956 192 c 0
 964 197 970 203 974 211 c 0
 978 219 980 228 982 239 c 0
 982 250 983 261 983 273 c 1
 293 273 l 2
 240 273 198 279 165 290 c 0
 132 301 107 317 88 338 c 0
 70 358 58 382 51 410 c 0
 44 439 41 470 41 503 c 0
 41 539 43 572 48 600 c 0
 53 630 64 654 80 674 c 0
 98 695 123 711 156 722 c 0
 190 733 236 739 293 739 c 2
 1124 739 l 1
 1124 551 l 1
 243 551 l 1
 243 541 243 531 244 520 c 0
 245 510 246 500 250 492 c 0
 252 482 257 475 264 470 c 0
 271 464 280 461 293 461 c 2
 923 461 l 2
EndSplineSet
Validated: 1
EndChar

StartChar: t
Encoding: 116 116 83
Width: 1141
Flags: W
HStem: 0 21G<482 668> 0 21G<482 668> 548 191<49 482 668 1098>
VStem: 482 186<0 548>
LayerCount: 2
Fore
SplineSet
49 739 m 1xb0
 1098 739 l 1
 1098 550 l 1
 668 550 l 1
 668 0 l 1
 482 0 l 1
 482 548 l 1
 49 548 l 1
 49 739 l 1xb0
EndSplineSet
Validated: 1
EndChar

StartChar: u
Encoding: 117 117 84
Width: 1154
Flags: W
HStem: 0 194<260.194 890.717> 720 20G<61 252 910.96 1103> 720 20G<61 252 910.96 1103>
VStem: 61 191<212.519 740> 910 193<198.187 740>
LayerCount: 2
Fore
SplineSet
911 740 m 1xd8
 1103 740 l 1
 1103 224 l 2
 1103 188 1097 156 1086 128 c 0
 1075 101 1059 78 1038 58 c 0
 1018 40 994 25 964 15 c 0
 936 5 903 0 868 0 c 2
 297 0 l 2
 262 0 231 5 202 16 c 0
 173 26 148 41 128 60 c 0
 106 79 90 103 78 130 c 0
 67 158 61 189 61 224 c 2
 61 740 l 1
 252 740 l 1
 252 256 l 2
 252 238 254 223 260 212 c 0
 264 200 277 194 296 194 c 2
 866 194 l 2
 877 194 885 196 891 198 c 0
 897 202 902 205 904 210 c 0
 908 215 909 220 910 226 c 2
 910 246 l 1
 911 740 l 1xd8
EndSplineSet
Validated: 1
EndChar

StartChar: v
Encoding: 118 118 85
Width: 1021
Flags: W
HStem: 719 20G<-2 223.65 798.134 1021> 719 20G<-2 223.65 798.134 1021>
LayerCount: 2
Fore
SplineSet
213 739 m 1x80
 508 185 l 1
 809 739 l 1
 1021 739 l 1
 717 166 l 2
 704 142 691 120 678 98 c 0
 665 78 650 59 634 44 c 0
 618 28 600 16 580 6 c 0
 559 -2 535 -7 508 -7 c 0
 482 -7 459 -2 438 7 c 0
 417 16 399 29 382 44 c 0
 365 60 350 78 336 100 c 0
 323 120 310 143 298 166 c 2
 -2 739 l 1
 213 739 l 1x80
EndSplineSet
Validated: 1
EndChar

StartChar: w
Encoding: 119 119 86
Width: 1202
Flags: W
HStem: 0 21G<270.5 319 884 930.5> 0 21G<270.5 319 884 930.5> 719 20G<0 199.813 583 617.5 1008.11 1200> 719 20G<0 199.813 1008.11 1200>
LayerCount: 2
Fore
SplineSet
196 739 m 1xa0
 298 204 l 1
 422 610 l 2
 436 656 458 692 489 717 c 0
 520 742 559 755 607 755 c 0
 628 755 648 751 666 744 c 0
 686 737 703 727 718 714 c 0
 734 701 748 686 760 668 c 0
 771 650 780 631 786 610 c 2
 908 204 l 1
 1012 739 l 1
 1200 739 l 1
 1091 149 l 2
 1082 101 1061 64 1028 38 c 0
 994 13 954 0 907 0 c 0
 861 0 822 13 790 40 c 0
 757 66 734 102 721 149 c 2
 607 550 l 1
 485 149 l 2
 471 102 448 66 416 40 c 0
 383 13 343 0 295 0 c 0
 246 0 205 12 174 36 c 0
 142 59 121 97 112 149 c 2
 0 739 l 1
 196 739 l 1xa0
EndSplineSet
Validated: 1
EndChar

StartChar: x
Encoding: 120 120 87
Width: 1109
Flags: W
HStem: 0 21G<39 299.321 811.679 1072> 0 21G<39 299.321 811.679 1072> 718 20G<39 299.557 811.443 1072>
LayerCount: 2
Fore
SplineSet
39 738 m 1xa0
 282 738 l 1
 476 517 l 2
 480 512 486 505 494 496 c 0
 502 488 510 479 518 469 c 0
 526 459 534 449 540 438 c 0
 548 428 552 419 555 410 c 2
 555 325 l 2
 552 316 548 307 540 298 c 0
 534 288 526 278 518 269 c 0
 510 260 502 251 494 243 c 0
 486 235 480 229 476 224 c 2
 282 0 l 1
 39 0 l 1
 354 367 l 1
 39 738 l 1xa0
1072 0 m 1
 829 0 l 1
 635 224 l 2
 631 229 625 235 617 243 c 0
 609 251 601 260 593 269 c 0
 585 278 578 288 570 298 c 0
 564 307 559 316 556 325 c 2
 556 410 l 2
 559 419 564 428 570 438 c 0
 578 449 585 459 593 469 c 0
 601 479 609 488 617 496 c 0
 625 505 631 512 635 517 c 2
 829 738 l 1
 1072 738 l 1
 757 367 l 1
 1072 0 l 1
EndSplineSet
Validated: 1
EndChar

StartChar: y
Encoding: 121 121 88
Width: 1129
Flags: W
HStem: 0 194<278 872.717> 304 194<242.194 882.761> 720 20G<43 234 893 1085> 720 20G<43 234 893 1085>
VStem: 43 191<516.519 740> 892 193<198.187 306 509.33 740>
LayerCount: 2
Fore
SplineSet
892 306 m 1xec
 885 305 878 305 871 304 c 2
 850 304 l 1
 279 304 l 2
 244 304 213 309 184 320 c 0
 155 330 130 345 110 364 c 0
 88 383 72 407 60 434 c 0
 49 462 43 493 43 528 c 2
 43 740 l 1
 234 740 l 1
 234 560 l 2
 234 542 236 527 242 516 c 0
 246 504 259 498 278 498 c 2
 848 498 l 2
 866 498 878 502 883 509 c 0
 888 516 892 525 893 536 c 2
 893 740 l 1
 1085 740 l 1
 1085 224 l 2
 1085 188 1079 156 1068 128 c 0
 1057 101 1041 78 1020 58 c 0
 1000 40 976 25 946 15 c 0
 918 5 885 0 850 0 c 2
 278 0 l 1
 278 194 l 1
 848 194 l 2
 859 194 867 196 873 198 c 0
 879 202 884 205 886 210 c 0
 890 215 891 220 892 226 c 2
 892 246 l 1
 892 306 l 1xec
EndSplineSet
Validated: 1
EndChar

StartChar: z
Encoding: 122 122 89
Width: 1238
Flags: W
HStem: 0 196<290 1160> 552 188<72 978>
LayerCount: 2
Fore
SplineSet
997 740 m 2
 1047 740 1085 735 1112 724 c 0
 1139 714 1158 700 1171 682 c 0
 1184 664 1191 643 1193 618 c 0
 1195 594 1196 568 1196 541 c 0
 1196 518 1192 496 1184 476 c 0
 1177 457 1166 439 1152 423 c 0
 1139 407 1122 394 1103 382 c 0
 1084 372 1062 364 1039 359 c 2
 290 196 l 1
 1160 196 l 1
 1160 0 l 1
 271 0 l 2
 214 0 170 5 138 14 c 0
 108 24 85 38 70 56 c 0
 56 74 48 95 45 120 c 0
 42 145 41 172 41 202 c 0
 41 224 42 244 44 260 c 0
 46 278 53 293 64 308 c 0
 75 322 94 336 118 348 c 0
 144 362 179 375 225 389 c 2
 978 552 l 1
 72 552 l 1
 72 740 l 1
 997 740 l 2
EndSplineSet
Validated: 1
EndChar

StartChar: braceleft
Encoding: 123 123 90
Width: 569
Flags: W
HStem: -150 149<319 536 319 536> 714 149<319 536 319 319>
VStem: 139 180<-1 714 -1 863 -1 863> 139 397<-150 -1 714 863>
LayerCount: 2
Fore
SplineSet
139 -150 m 1xd0
 139 863 l 1
 536 863 l 1
 536 714 l 1xd0
 319 714 l 1
 319 -1 l 1xe0
 536 -1 l 1
 536 -150 l 1
 139 -150 l 1xd0
EndSplineSet
Validated: 1
EndChar

StartChar: braceright
Encoding: 125 125 91
Width: 755
Flags: W
HStem: -155 149<323 540> 709 149<323 540>
VStem: 323 397<-155 -6 709 858> 540 180<-6 709>
LayerCount: 2
Fore
SplineSet
720 858 m 1xe0
 720 -155 l 1
 323 -155 l 1
 323 -6 l 1xe0
 540 -6 l 1
 540 709 l 1xd0
 323 709 l 1
 323 858 l 1
 720 858 l 1xe0
EndSplineSet
Validated: 1
EndChar
